<svg width="18" height="18" viewBox="0 0 18 18" fill="none" xmlns="http://www.w3.org/2000/svg">
<g clip-path="url(#clip0_62_300)">
<path d="M1.08302 5.00162C0.831884 5.07337 0.60384 5.20946 0.421449 5.39641C0.239059 5.58336 0.108643 5.81469 0.0431062 6.06752C-0.0224302 6.32034 -0.0208155 6.5859 0.0477904 6.83791C0.116396 7.08992 0.249616 7.31965 0.434266 7.50437L2.99327 10.0604V14.9999H7.93802L10.5143 17.5724C10.6525 17.7118 10.817 17.8226 10.9982 17.8983C11.1795 17.9739 11.3739 18.0131 11.5703 18.0134C11.6993 18.0131 11.8279 17.9965 11.9528 17.9639C12.2055 17.9002 12.437 17.7711 12.6239 17.5895C12.8109 17.408 12.9467 17.1804 13.0178 16.9296L17.9933 0.015625L1.08302 5.00162ZM1.50002 6.44387L14.271 2.67887L4.49477 12.4394V9.43936L1.50002 6.44387ZM11.58 16.5119L8.55977 13.4999H5.55977L15.3345 3.73337L11.58 16.5119Z" fill="white"/>
</g>
<defs>
<clipPath id="clip0_62_300">
<rect width="18" height="18" fill="white"/>
</clipPath>
</defs>
</svg>
