<svg width="51" height="51" viewBox="0 0 51 51" fill="none" xmlns="http://www.w3.org/2000/svg">
<g clip-path="url(#clip0_62_103)">
<path d="M25.1648 0.664673C20.2203 0.664673 15.3868 2.1309 11.2755 4.87793C7.16432 7.62497 3.96001 11.5294 2.06782 16.0976C0.175627 20.6657 -0.319456 25.6924 0.645174 30.5419C1.6098 35.3915 3.99082 39.846 7.48714 43.3423C10.9834 46.8387 15.438 49.2197 20.2875 50.1843C25.1371 51.1489 30.1637 50.6539 34.7319 48.7617C39.3 46.8695 43.2045 43.6652 45.9515 39.5539C48.6986 35.4427 50.1648 30.6092 50.1648 25.6647C50.1576 19.0365 47.5214 12.6818 42.8346 7.99492C38.1477 3.30806 31.793 0.671842 25.1648 0.664673V0.664673ZM25.1648 46.498C21.0444 46.498 17.0164 45.2762 13.5904 42.987C10.1644 40.6978 7.49414 37.444 5.91732 33.6372C4.34049 29.8305 3.92792 25.6416 4.73178 21.6003C5.53564 17.559 7.51982 13.8469 10.4334 10.9333C13.347 8.01969 17.0592 6.03551 21.1004 5.23165C25.1417 4.42779 29.3306 4.84036 33.1374 6.41718C36.9442 7.99401 40.1979 10.6643 42.4871 14.0903C44.7763 17.5163 45.9981 21.5442 45.9981 25.6647C45.9921 31.1882 43.7952 36.4837 39.8895 40.3894C35.9838 44.2951 30.6883 46.4919 25.1648 46.498Z" fill="white"/>
<path d="M25.1645 21.4987H23.0811C22.5286 21.4987 21.9987 21.7182 21.608 22.1089C21.2173 22.4996 20.9978 23.0295 20.9978 23.582C20.9978 24.1345 21.2173 24.6644 21.608 25.0551C21.9987 25.4458 22.5286 25.6653 23.0811 25.6653H25.1645V38.1653C25.1645 38.7179 25.384 39.2478 25.7747 39.6385C26.1654 40.0292 26.6953 40.2487 27.2478 40.2487C27.8003 40.2487 28.3302 40.0292 28.7209 39.6385C29.1116 39.2478 29.3311 38.7179 29.3311 38.1653V25.6653C29.3311 24.5603 28.8921 23.5004 28.1107 22.719C27.3293 21.9376 26.2695 21.4987 25.1645 21.4987Z" fill="white"/>
<path d="M25.1648 17.3307C26.8907 17.3307 28.2898 15.9316 28.2898 14.2057C28.2898 12.4798 26.8907 11.0807 25.1648 11.0807C23.4389 11.0807 22.0398 12.4798 22.0398 14.2057C22.0398 15.9316 23.4389 17.3307 25.1648 17.3307Z" fill="white"/>
</g>
<defs>
<clipPath id="clip0_62_103">
<rect width="50" height="50" fill="white" transform="translate(0.164795 0.664673)"/>
</clipPath>
</defs>
</svg>
